<svg width="35" height="28" viewBox="0 0 35 28" fill="none" xmlns="http://www.w3.org/2000/svg">
<path d="M29.6241 2.26484C27.3592 1.21528 24.9471 0.441921 22.406 0C22.093 0.552401 21.7248 1.30735 21.4854 1.91499C18.797 1.5099 16.1271 1.5099 13.494 1.91499C13.2362 1.30735 12.8679 0.552401 12.5549 0C10.0138 0.441921 7.6017 1.21528 5.33685 2.26484C0.77034 9.15144 -0.463356 15.8723 0.144285 22.4827C3.18249 24.7476 6.11022 26.1102 9.00111 27.0124C9.71924 26.0365 10.3453 24.9869 10.8977 23.9005C9.84813 23.5139 8.85381 23.0167 7.91473 22.4459C8.17251 22.2618 8.41189 22.0592 8.65126 21.8751C14.4146 24.5634 20.6568 24.5634 26.3465 21.8751C26.5859 22.0776 26.8253 22.2618 27.083 22.4459C26.144 23.0167 25.1312 23.4955 24.1001 23.9005C24.6525 24.9869 25.2785 26.0365 25.9967 27.0124C28.8876 26.1102 31.8337 24.7476 34.8535 22.4827C35.5716 14.8043 33.6198 8.15712 29.6609 2.26484H29.6241ZM11.6711 18.4318C9.9402 18.4318 8.52237 16.8298 8.52237 14.8596C8.52237 12.8894 9.90337 11.2874 11.6711 11.2874C13.4387 11.2874 14.8382 12.8894 14.8197 14.8596C14.8197 16.8114 13.4387 18.4318 11.6711 18.4318ZM23.2899 18.4318C21.559 18.4318 20.1412 16.8298 20.1412 14.8596C20.1412 12.8894 21.5222 11.2874 23.2899 11.2874C25.0576 11.2874 26.457 12.8894 26.4386 14.8596C26.4386 16.8114 25.0576 18.4318 23.2899 18.4318Z" fill="black"/>
</svg>
