<svg width="34" height="34" viewBox="0 0 34 34" fill="none" xmlns="http://www.w3.org/2000/svg">
<path d="M33 17C33 19.1012 32.5861 21.1817 31.7821 23.1229C30.978 25.0641 29.7994 26.828 28.3137 28.3137C26.828 29.7994 25.0641 30.978 23.1229 31.7821C21.1817 32.5861 19.1012 33 17 33C14.8989 33 12.8183 32.5861 10.8771 31.7821C8.93586 30.978 7.17203 29.7994 5.68629 28.3137C4.20055 26.828 3.022 25.0641 2.21793 23.1229C1.41385 21.1817 1 19.1012 1 17C1 12.7565 2.68571 8.68687 5.68629 5.68629C8.68687 2.68571 12.7565 1 17 1C21.2435 1 25.3131 2.68571 28.3137 5.68629C31.3143 8.68687 33 12.7565 33 17Z" stroke="white" stroke-width="2" stroke-linecap="round" stroke-linejoin="round"/>
<path d="M1.66675 15.0605H6.2122C7.17663 15.0605 8.10155 15.4436 8.7835 16.1256C9.46545 16.8075 9.84857 17.7325 9.84857 18.6969C9.84857 19.6613 10.2317 20.5862 10.9136 21.2682C11.5956 21.9501 12.5205 22.3333 13.4849 22.3333C14.4494 22.3333 15.3743 22.7164 16.0562 23.3983C16.7382 24.0803 17.1213 25.0052 17.1213 25.9696V32.3333M9.84857 2.33325V4.15143C9.84857 5.11586 10.2317 6.04078 10.9136 6.72273C11.5956 7.40468 12.5205 7.7878 13.4849 7.7878H13.7504C15.6122 7.7878 17.1213 9.29689 17.1213 11.1587C17.1213 12.4351 17.8431 13.6023 18.9849 14.1751L19.1304 14.2478C19.6356 14.5006 20.1927 14.6322 20.7577 14.6322C21.3226 14.6322 21.8797 14.5006 22.3849 14.2478L22.5304 14.1751C23.0908 13.8949 23.5621 13.4641 23.8913 12.9309C24.2205 12.3978 24.3946 11.7835 24.394 11.1569C24.394 9.29689 25.9031 7.7878 27.7649 7.7878H30.7577M24.394 30.5151V25.9696C24.394 25.0052 24.7771 24.0803 25.4591 23.3983C26.141 22.7164 27.066 22.3333 28.0304 22.3333H31.6667" stroke="white" stroke-width="2" stroke-linecap="round" stroke-linejoin="round"/>
</svg>
