<svg width="31" height="34" viewBox="0 0 31 34" fill="none" xmlns="http://www.w3.org/2000/svg">
<path d="M25.1667 28.1472H23.9422C22.6533 28.1472 21.4289 28.6467 20.5267 29.5489L17.7717 32.2717C16.515 33.5122 14.4689 33.5122 13.2122 32.2717L10.4572 29.5489C9.555 28.6467 8.31444 28.1472 7.04167 28.1472H5.83333C3.15889 28.1472 1 26.0044 1 23.3622V5.785C1 3.14278 3.15889 1 5.83333 1H25.1667C27.8411 1 30 3.14278 30 5.785V23.3622C30 25.9883 27.8411 28.1472 25.1667 28.1472Z" stroke="white" stroke-width="1.5" stroke-miterlimit="10" stroke-linecap="round" stroke-linejoin="round"/>
<path d="M7.44446 12.5197C7.44446 11.0214 8.6689 9.79696 10.1672 9.79696C11.6656 9.79696 12.89 11.0214 12.89 12.5197C12.89 15.5486 8.58835 15.8708 7.63779 18.7547C7.44446 19.3508 7.9439 19.947 8.57224 19.947H12.89M22.0089 19.9309V10.7314C22.0098 10.5278 21.9442 10.3296 21.822 10.1667C21.6999 10.0039 21.5279 9.88534 21.3322 9.82918C21.1352 9.77354 20.9256 9.78265 20.7341 9.85516C20.5427 9.92768 20.3796 10.0598 20.2689 10.232C19.1089 12.1008 17.8522 14.2275 16.7567 16.0964C16.5795 16.4025 16.5795 16.8053 16.7567 17.1114C16.9339 17.4175 17.2722 17.6108 17.6428 17.6108H23.5556" stroke="white" stroke-width="1.5" stroke-linecap="round" stroke-linejoin="round"/>
</svg>
