<svg width="31" height="34" viewBox="0 0 31 34" fill="none" xmlns="http://www.w3.org/2000/svg">
<path d="M1 32.9999C1 26.8079 7.00591 21.7999 14.4002 21.7999C15.8978 21.7999 17.3485 22.0079 18.7057 22.3919M14.4002 17C16.4688 17 18.4528 16.1571 19.9155 14.6568C21.3783 13.1565 22.2001 11.1217 22.2001 8.99998C22.2001 6.87825 21.3783 4.84343 19.9155 3.34314C18.4528 1.84285 16.4688 1 14.4002 1C12.3315 1 10.3476 1.84285 8.88484 3.34314C7.42208 4.84343 6.60031 6.87825 6.60031 8.99998C6.60031 11.1217 7.42208 13.1565 8.88484 14.6568C10.3476 16.1571 12.3315 17 14.4002 17Z" stroke="white" stroke-width="2" stroke-linecap="round" stroke-linejoin="round"/>
<path d="M30.0001 26.6001C30.0001 27.8001 29.6725 28.9361 29.0953 29.8961C28.7677 30.4721 28.3465 30.9841 27.8629 31.4001C26.7709 32.4081 25.3358 33.0001 23.7602 33.0001C22.6847 33.0024 21.6271 32.7174 20.6916 32.1731C19.7562 31.6288 18.975 30.8441 18.4251 29.8961C17.8312 28.9048 17.518 27.7636 17.5203 26.6001C17.5203 24.5841 18.4251 22.7761 19.8602 21.6081C20.7775 20.8541 21.8838 20.3812 23.0517 20.244C24.2196 20.1067 25.4015 20.3108 26.4613 20.8325C27.521 21.3542 28.4155 22.1725 29.0416 23.1929C29.6677 24.2133 30 25.3944 30.0001 26.6001Z" stroke="white" stroke-width="2" stroke-miterlimit="10" stroke-linecap="round" stroke-linejoin="round"/>
<path d="M21.3265 26.5997L22.8709 28.1837L26.1937 25.0317" stroke="white" stroke-width="2" stroke-linecap="round" stroke-linejoin="round"/>
</svg>
