<svg width="29" height="29" viewBox="0 0 29 29" fill="none" xmlns="http://www.w3.org/2000/svg">
<path d="M14.5 11.0472C13.8172 11.0474 13.1497 11.2502 12.5821 11.6297C12.0144 12.0093 11.5721 12.5486 11.3109 13.1796C11.0498 13.8105 10.9816 14.5047 11.115 15.1744C11.2484 15.8441 11.5773 16.4592 12.0602 16.942C12.5432 17.4247 13.1584 17.7534 13.8282 17.8866C14.4979 18.0197 15.1921 17.9512 15.8229 17.6899C16.4538 17.4285 16.993 16.9859 17.3723 16.4181C17.7516 15.8504 17.9541 15.1828 17.9541 14.5C17.9534 13.5842 17.5892 12.7062 16.9416 12.0588C16.2939 11.4114 15.4158 11.0475 14.5 11.0472ZM22.5727 8.39317C22.397 7.94771 22.1315 7.54312 21.7929 7.2045C21.4543 6.86587 21.0497 6.60044 20.6042 6.42466C19.2449 5.88804 16.0083 6.00844 14.5 6.00844C12.9917 6.00844 9.75837 5.8835 8.39511 6.42466C7.94965 6.60044 7.54506 6.86587 7.20644 7.2045C6.86782 7.54312 6.60238 7.94771 6.42661 8.39317C5.89062 9.75254 6.01038 12.9924 6.01038 14.4994C6.01038 16.0063 5.89062 19.2423 6.4292 20.6062C6.60497 21.0516 6.8704 21.4562 7.20903 21.7949C7.54765 22.1335 7.95224 22.3989 8.3977 22.5747C9.75708 23.1113 12.9937 22.9909 14.5026 22.9909C16.0115 22.9909 19.2436 23.1158 20.6068 22.5747C21.0523 22.3989 21.4569 22.1335 21.7955 21.7949C22.1341 21.4562 22.3996 21.0516 22.5753 20.6062C23.1158 19.2468 22.9916 16.007 22.9916 14.5C22.9916 12.993 23.1158 9.75772 22.5753 8.39382L22.5727 8.39317ZM14.5 19.808C13.4502 19.808 12.4239 19.4967 11.551 18.9135C10.6781 18.3302 9.99777 17.5012 9.59601 16.5313C9.19426 15.5614 9.08914 14.4941 9.29396 13.4645C9.49877 12.4348 10.0043 11.489 10.7467 10.7467C11.489 10.0043 12.4348 9.49877 13.4645 9.29396C14.4941 9.08914 15.5614 9.19426 16.5313 9.59601C17.5012 9.99777 18.3302 10.6781 18.9135 11.551C19.4967 12.4239 19.808 13.4502 19.808 14.5C19.8089 15.1973 19.6722 15.8879 19.4057 16.5323C19.1393 17.1767 18.7483 17.7622 18.2552 18.2552C17.7622 18.7483 17.1767 19.1393 16.5323 19.4057C15.8879 19.6722 15.1973 19.8089 14.5 19.808ZM20.0268 10.2083C19.7818 10.2084 19.5422 10.1358 19.3383 9.99977C19.1345 9.86371 18.9756 9.67025 18.8817 9.44387C18.7878 9.21749 18.7632 8.96835 18.8109 8.72797C18.8587 8.48759 18.9766 8.26677 19.1499 8.09343C19.3231 7.92009 19.5439 7.80202 19.7842 7.75417C20.0246 7.70631 20.2737 7.73081 20.5002 7.82456C20.7266 7.91832 20.9201 8.07712 21.0563 8.28088C21.1925 8.48464 21.2652 8.72421 21.2652 8.96929C21.2658 9.13203 21.2344 9.29331 21.1726 9.44387C21.1108 9.59443 21.0199 9.73131 20.9051 9.84666C20.7903 9.96201 20.6538 10.0536 20.5036 10.1161C20.3533 10.1786 20.1922 10.2108 20.0294 10.2108L20.0268 10.2083ZM25.8929 0H3.10714C2.28308 0 1.49276 0.327359 0.910061 0.910061C0.327359 1.49276 0 2.28308 0 3.10714L0 25.8929C0 26.7169 0.327359 27.5072 0.910061 28.0899C1.49276 28.6726 2.28308 29 3.10714 29H25.8929C26.7169 29 27.5072 28.6726 28.0899 28.0899C28.6726 27.5072 29 26.7169 29 25.8929V3.10714C29 2.28308 28.6726 1.49276 28.0899 0.910061C27.5072 0.327359 26.7169 0 25.8929 0ZM24.7846 18.7723C24.7011 20.4314 24.3225 21.9015 23.1113 23.1094C21.9002 24.3173 20.4314 24.7037 18.7743 24.7827C17.0647 24.8792 11.9392 24.8792 10.2296 24.7827C8.57054 24.6992 7.10565 24.3199 5.89257 23.1094C4.67949 21.8989 4.29821 20.4282 4.21924 18.7723C4.12279 17.0621 4.12279 11.936 4.21924 10.2277C4.30275 8.56859 4.6769 7.09853 5.89257 5.89062C7.10824 4.68272 8.57701 4.3008 10.2296 4.22183C11.9392 4.12538 17.0647 4.12538 18.7743 4.22183C20.4333 4.30534 21.9028 4.68467 23.1113 5.89516C24.3199 7.10565 24.7057 8.57636 24.7846 10.2354C24.8811 11.9392 24.8811 17.0608 24.7846 18.7723Z" fill="black"/>
</svg>
