<svg width="31" height="31" viewBox="0 0 31 31" fill="none" xmlns="http://www.w3.org/2000/svg">
<path fill-rule="evenodd" clip-rule="evenodd" d="M0 2.58979C0 1.90294 0.272855 1.24421 0.758534 0.758534C1.24421 0.272855 1.90294 0 2.58979 0H28.4101C28.7503 0 29.0871 0.0669912 29.4012 0.197141C29.7154 0.32729 30.0009 0.518048 30.2414 0.758534C30.4819 0.99902 30.6727 1.28452 30.8029 1.59871C30.9329 1.91293 31 2.24969 31 2.58979V28.4101C31 28.7503 30.9329 29.0871 30.8029 29.4012C30.6727 29.7154 30.4819 30.0009 30.2414 30.2414C30.0009 30.4819 29.7154 30.6727 29.4012 30.8029C29.0871 30.9329 28.7503 31 28.4101 31H2.58979C1.90294 31 1.24421 30.727 0.758534 30.2414C0.272855 29.7557 0 29.0971 0 28.4101V2.58979ZM12.2708 11.8187H16.4688V13.9281C17.0739 12.7151 18.6245 11.625 20.954 11.625C25.4193 11.625 26.4791 14.0391 26.4791 18.4688V26.6729H21.9583V19.4776C21.9583 16.9551 21.3532 15.5323 19.8141 15.5323C17.6797 15.5323 16.7916 17.0661 16.7916 19.4776V26.6729H12.2708V11.8187ZM4.52082 26.4791H9.04166V11.625H4.52082V26.4791ZM9.68749 6.78123C9.68749 7.16289 9.61231 7.54081 9.46627 7.89341C9.32021 8.24601 9.10613 8.56639 8.83626 8.83626C8.56639 9.10613 8.24601 9.32021 7.89341 9.46627C7.54081 9.61231 7.16289 9.68749 6.78123 9.68749C6.39959 9.68749 6.02167 9.61231 5.66907 9.46627C5.31646 9.32021 4.99609 9.10613 4.72621 8.83626C4.45634 8.56639 4.24228 8.24601 4.09622 7.89341C3.95017 7.54081 3.87499 7.16289 3.87499 6.78123C3.87499 6.01045 4.18119 5.27124 4.72621 4.72621C5.27124 4.18119 6.01045 3.87499 6.78123 3.87499C7.55203 3.87499 8.29124 4.18119 8.83626 4.72621C9.38129 5.27124 9.68749 6.01045 9.68749 6.78123Z" fill="black"/>
</svg>
