<svg width="33" height="27" viewBox="0 0 33 27" fill="none" xmlns="http://www.w3.org/2000/svg">
<path d="M32.9371 3.19584C31.7233 3.72797 30.4239 4.09406 29.0544 4.26009C30.4518 3.42169 31.5202 2.0955 32.0296 0.515625C30.7189 1.27875 29.2689 1.8315 27.7272 2.14397C26.498 0.828094 24.7407 0 22.7906 0C19.0523 0 16.0225 3.02878 16.0225 6.76191C16.0225 7.29919 16.0875 7.81481 16.1999 8.30363C10.5765 8.04066 5.59144 5.33878 2.25741 1.25709C1.67166 2.25122 1.33856 3.40622 1.33856 4.66331C1.33856 7.01559 2.53584 9.07809 4.34569 10.2908C3.23916 10.2589 2.19759 9.95259 1.28494 9.44831V9.52978C1.28494 12.8102 3.61556 15.5451 6.70931 16.1679C6.14522 16.3175 5.54297 16.4041 4.93144 16.4041C4.49728 16.4041 4.08272 16.3618 3.66919 16.2855C4.53956 18.9709 7.03106 20.9261 10.0011 20.9849C7.69209 22.7948 4.76541 23.8734 1.61184 23.8734C1.07456 23.8734 0.538312 23.8477 0 23.7827C3.00816 25.7008 6.55875 26.8228 10.394 26.8228C22.8381 26.8228 29.6381 16.5155 29.6381 7.58897C29.6381 7.30434 29.6381 7.01456 29.6165 6.72375C30.9437 5.77809 32.0925 4.57978 33 3.22163L32.9371 3.19584Z" fill="black"/>
</svg>
